HIERARCHY
ROOT hip
{
	OFFSET 0.000000 0.000000 0.000000
	CHANNELS 6 Xposition Yposition Zposition Zrotation Yrotation Xrotation 
	JOINT lhipjoint
	{
		OFFSET 0.000000 0.000000 0.000000
		CHANNELS 3 Zrotation Yrotation Xrotation
		JOINT lfemur
		{
			OFFSET 1.363060 -1.794630 0.839290
			CHANNELS 3 Zrotation Yrotation Xrotation
			JOINT ltibia
			{
				OFFSET 2.448110 -6.726130 0.000000
				CHANNELS 3 Zrotation Yrotation Xrotation
				JOINT lfoot
				{
					OFFSET 2.562200 -7.039590 0.000000
					CHANNELS 3 Zrotation Yrotation Xrotation
					JOINT ltoes
					{
						OFFSET 0.157640 -0.433110 2.322550
						CHANNELS 3 Zrotation Yrotation Xrotation
						End Site
						{
							OFFSET 0.000000 0.000000 0.000000
						}
					}
				}
			}
		}
	}
	JOINT rhipjoint
	{
		OFFSET 0.000000 0.000000 0.000000
		CHANNELS 3 Zrotation Yrotation Xrotation
		JOINT rfemur
		{
			OFFSET -1.305520 -1.794630 0.839290
			CHANNELS 3 Zrotation Yrotation Xrotation
			JOINT rtibia
			{
				OFFSET -2.542530 -6.985550 0.000000
				CHANNELS 3 Zrotation Yrotation Xrotation
				JOINT rfoot
				{
					OFFSET -2.568260 -7.056230 0.000000
					CHANNELS 3 Zrotation Yrotation Xrotation
					JOINT rtoes
					{
						OFFSET -0.164730 -0.452590 2.363150
						CHANNELS 3 Zrotation Yrotation Xrotation
						End Site
						{
							OFFSET 0.000000 0.000000 0.000000
						}
					}
				}
			}
		}
	}
	JOINT lowerback
	{
		OFFSET 0.000000 0.000000 0.000000
		CHANNELS 3 Zrotation Yrotation Xrotation
		JOINT upperback
		{
			OFFSET 0.028270 2.035590 -0.193380
			CHANNELS 3 Zrotation Yrotation Xrotation
			JOINT thorax
			{
				OFFSET 0.056720 2.048850 -0.042750
				CHANNELS 3 Zrotation Yrotation Xrotation
				JOINT lowerneck
				{
					OFFSET 0.000000 0.000000 0.000000
					CHANNELS 3 Zrotation Yrotation Xrotation
					JOINT upperneck
					{
						OFFSET -0.054170 1.746240 0.172020
						CHANNELS 3 Zrotation Yrotation Xrotation
						JOINT head
						{
							OFFSET 0.104070 1.761360 -0.123970
							CHANNELS 3 Zrotation Yrotation Xrotation
							End Site
							{
								OFFSET 0.000000 0.000000 0.000000
							}
						}
					}
				}
				JOINT lclavicle
				{
					OFFSET 0.000000 0.000000 0.000000
					CHANNELS 3 Zrotation Yrotation Xrotation
					JOINT lhumerus
					{
						OFFSET 3.362410 1.200890 -0.311210
						CHANNELS 3 Zrotation Yrotation Xrotation
						JOINT lradius
						{
							OFFSET 4.983000 -0.000000 -0.000000
							CHANNELS 3 Zrotation Yrotation Xrotation
							JOINT lwrist
							{
								OFFSET 3.483560 -0.000000 -0.000000
								CHANNELS 3 Zrotation Yrotation Xrotation
								JOINT lhand
								{
									OFFSET 0.000000 0.000000 0.000000
									CHANNELS 3 Zrotation Yrotation Xrotation
									JOINT lfingers
									{
										OFFSET 0.715260 -0.000000 -0.000000
										CHANNELS 3 Zrotation Yrotation Xrotation
										End Site
										{
											OFFSET 0.000000 0.000000 0.000000
										}
									}
								}
								JOINT lthumb
								{
									OFFSET 0.000000 0.000000 0.000000
									CHANNELS 3 Zrotation Yrotation Xrotation
									End Site
									{
										OFFSET 0.000000 0.000000 0.000000
									}
								}
							}
						}
					}
				}
				JOINT rclavicle
				{
					OFFSET 0.000000 0.000000 0.000000
					CHANNELS 3 Zrotation Yrotation Xrotation
					JOINT rhumerus
					{
						OFFSET -3.136600 1.374050 -0.404650
						CHANNELS 3 Zrotation Yrotation Xrotation
						JOINT rradius
						{
							OFFSET -5.241900 -0.000000 -0.000000
							CHANNELS 3 Zrotation Yrotation Xrotation
							JOINT rwrist
							{
								OFFSET -3.444170 -0.000000 -0.000000
								CHANNELS 3 Zrotation Yrotation Xrotation
								JOINT rhand
								{
									OFFSET 0.000000 0.000000 0.000000
									CHANNELS 3 Zrotation Yrotation Xrotation
									JOINT rfingers
									{
										OFFSET -0.622530 -0.000000 -0.000000
										CHANNELS 3 Zrotation Yrotation Xrotation
										End Site
										{
											OFFSET 0.000000 0.000000 0.000000
										}
									}
								}
								JOINT rthumb
								{
									OFFSET 0.000000 0.000000 0.000000
									CHANNELS 3 Zrotation Yrotation Xrotation
									End Site
									{
										OFFSET 0.000000 0.000000 0.000000
									}
								}
							}
						}
					}
				}
			}
		}
	}
}
MOTION
Frames: 10
Frame Time: 0.008333
-1.408470 17.141582 -7.763088 -166.120363 47.720758 179.651985 -2.746620 2.680621 2.581939 2.275040 0.087253 -12.490846 5.611245 14.310179 44.126252 2.544245 -15.951435 -3.095595 1.534600 -7.820600 -22.170600 -1.549289 -4.860074 2.406944 12.224074 -3.466703 21.463400 -3.813249 -8.821578 29.032868 6.933933 -31.448028 8.069085 -1.418500 7.532100 -21.301600 14.846614 -1.540237 -5.301108 4.239426 -2.507658 -5.321189 9.233937 0.629399 1.004916 -1.059833 3.040223 -1.996795 -11.412527 5.348977 7.872430 -2.989000 2.527300 2.844700 0.425092 1.725450 -0.014119 -63.855513 41.202459 1.950948 16.931920 -40.893044 -7.589111 -1.062144 0.692954 150.968672 23.524662 -2.082975 -0.359400 -7.125000 0.000000 0.000000 -2.834600 29.052600 1.102600 5.517853 0.735753 0.969056 31.161036 12.489213 -48.256560 -156.498408 28.323458 -113.743517 -0.225988 0.178124 93.160232 -24.632979 -67.593263 22.802800 7.125000 0.000000 0.000000 121.604200 76.081400 134.453100 
-1.414312 17.141582 -7.836884 -166.392549 45.545208 178.978102 -2.714279 2.680187 2.570783 1.991561 -1.056860 -12.406226 5.655252 14.312905 44.302857 2.564223 -16.850436 -2.694302 1.389200 -7.457200 -21.077200 -1.462082 -4.862454 2.412577 13.011868 -4.687857 22.324646 -3.897110 -8.804531 29.159794 7.170085 -32.296196 8.118849 -1.253400 7.097800 -20.005300 14.482857 -0.408632 -5.665954 3.843849 -1.143903 -5.316493 8.313474 1.251114 0.959710 -1.809641 1.778236 -1.693044 -11.090001 3.714165 7.917459 -2.605600 1.715900 2.571600 0.312700 1.734556 -0.019454 -64.049697 40.631126 2.612677 17.343903 -41.181586 -7.726986 -1.044728 0.673580 150.269368 23.619695 -2.487857 -0.542700 -7.125000 0.000000 0.000000 -2.735900 28.589600 1.094200 5.419305 0.813896 0.871428 28.883490 13.454739 -48.384093 -155.653340 29.347741 -113.312019 -0.309626 0.176081 95.050191 -24.155667 -68.934202 22.541700 7.125000 0.000000 0.000000 123.750700 75.224400 137.178400 
-1.427124 17.139019 -7.906067 -166.617265 43.544863 178.381500 -2.671014 2.684476 2.555932 1.688107 -2.075813 -12.366276 5.711053 14.322507 44.520571 2.572793 -17.730165 -2.291243 1.253400 -7.097700 -20.005200 -1.362652 -4.855901 2.425816 13.817623 -5.669166 23.004762 -3.984291 -8.810659 29.344013 7.464439 -33.251977 7.937388 -1.048700 6.512200 -18.278000 14.236323 0.828993 -5.889020 3.407393 0.389035 -5.309127 7.228631 1.946044 0.861015 -2.571073 0.460162 -1.254884 -10.724820 2.003452 7.976616 -2.169700 0.866900 2.305800 0.186137 1.738629 -0.012420 -64.212492 39.910291 2.797737 17.674995 -41.325536 -7.818775 -1.025529 0.657588 149.985141 23.524149 -2.640970 -0.615800 -7.125000 0.000000 0.000000 -2.795600 28.397700 1.130900 5.285417 0.900011 0.764399 26.615338 14.442382 -49.205827 -154.690664 30.506343 -112.818487 -0.387643 0.172068 96.719761 -21.914487 -70.282067 20.584600 7.125000 0.000000 0.000000 123.820200 74.259900 138.214800 
-1.448955 17.136560 -7.969716 -166.802806 41.713177 177.805728 -2.620356 2.695726 2.541518 1.356207 -3.026012 -12.301646 5.776558 14.337384 44.772659 2.569146 -18.541193 -1.900323 1.098500 -6.660000 -18.712100 -1.255472 -4.842048 2.445264 14.575561 -6.455063 23.528507 -4.071365 -8.835340 29.584486 7.815511 -34.266506 7.449000 -0.868100 5.940700 -16.612400 14.116082 2.114006 -5.881576 2.945540 2.028663 -5.297530 5.999942 2.682619 0.716731 -3.265241 -0.875814 -0.744406 -10.387408 0.271616 8.041890 -1.737100 0.005800 2.074900 0.052147 1.738599 0.005032 -64.338030 39.228071 2.710237 18.005100 -41.440969 -7.912476 -1.006797 0.638483 149.801442 23.134819 -2.435618 -0.531300 -7.125000 0.000000 0.000000 -3.094400 28.591200 1.237900 5.119638 0.988669 0.653327 24.292768 15.579517 -50.503855 -153.145762 32.312231 -111.965912 -0.456099 0.154708 97.922169 -19.889639 -71.644062 18.821900 7.125000 0.000000 0.000000 124.360000 73.310800 139.641900 
-1.475501 17.129795 -8.027727 -166.950364 39.939918 177.247849 -2.563918 2.712204 2.529150 1.027719 -3.926707 -12.260036 5.850346 14.357286 45.053326 2.556202 -19.328880 -1.511454 0.960400 -6.240000 -17.482400 -1.142832 -4.826291 2.470525 15.274283 -7.219152 23.923757 -4.162969 -8.873734 29.893098 8.194372 -35.245213 6.694079 -0.720500 5.423900 -15.121800 14.043056 3.376335 -5.697757 2.487101 3.674386 -5.290635 4.751482 3.417966 0.543336 -3.881822 -2.178714 -0.201143 -10.100929 -1.414414 8.163502 -1.336200 -0.839700 1.915800 -0.071769 1.725771 0.022743 -64.637564 38.583553 2.123436 18.271501 -41.474549 -7.967602 -0.993341 0.619666 149.842451 22.622371 -1.845752 -0.290200 -7.125000 0.000000 0.000000 -3.509100 29.199900 1.353500 4.932729 1.074118 0.538376 21.864637 16.897634 -52.179315 -151.104988 34.580068 -110.753628 -0.506821 0.123316 98.595440 -18.143634 -72.804036 17.293400 7.125000 0.000000 0.000000 124.928600 72.511300 140.938900 
-1.503790 17.119648 -8.078564 -167.091797 38.194878 176.675937 -2.505327 2.732148 2.517889 0.684980 -4.834286 -12.207220 5.930103 14.378431 45.355772 2.531452 -20.099969 -1.090548 0.825700 -5.797600 -16.198100 -1.028685 -4.806135 2.503161 15.990811 -7.865033 24.265422 -4.255664 -8.924171 30.272322 8.651968 -36.286877 5.475139 -0.532400 4.675400 -12.985000 13.963633 4.553884 -5.341639 2.045197 5.243156 -5.288555 3.504640 4.111835 0.338483 -4.304306 -3.403457 0.383580 -9.932463 -2.995318 8.260894 -1.030700 -1.629200 1.773700 -0.191520 1.713422 0.051299 -64.846784 38.174082 1.568086 18.595447 -41.592824 -8.065382 -0.983233 0.594614 149.700164 21.980070 -0.994566 0.041500 -7.125000 0.000000 0.000000 -4.046400 30.080700 1.476600 4.745170 1.155447 0.424804 19.352420 18.366430 -54.129523 -148.911124 36.870670 -109.371811 -0.534122 0.078510 98.639742 -16.232171 -73.264972 15.538100 7.125000 0.000000 0.000000 124.192800 72.148400 140.715200 
-1.533820 17.106939 -8.124379 -167.235607 36.462412 176.100639 -2.448811 2.754213 2.506721 0.322830 -5.730272 -12.166674 6.015731 14.400254 45.676556 2.497505 -20.861502 -0.664117 0.702600 -5.357700 -14.931700 -0.914316 -4.786604 2.541123 16.683082 -8.449088 24.515892 -4.354075 -8.989445 30.711142 9.120125 -37.292847 4.123008 -0.378200 3.949600 -10.935000 13.837483 5.608243 -4.877378 1.636517 6.674758 -5.293729 2.350199 4.740438 0.144759 -4.559763 -4.487026 0.782885 -9.875136 -4.385363 8.445632 -0.829200 -2.339200 1.753700 -0.282648 1.693253 0.081067 -65.042883 37.928634 1.121857 18.871605 -41.692658 -8.138802 -0.977014 0.563740 149.299171 21.203013 0.083754 0.434800 -7.125000 0.000000 0.000000 -4.719200 31.192000 1.597600 4.540547 1.210004 0.284706 17.332828 20.610463 -56.342591 -146.554652 39.120697 -107.786217 -0.504958 0.014888 98.006435 -16.129512 -72.600443 15.436600 7.125000 0.000000 0.000000 122.802100 72.573800 139.115500 
-1.563031 17.095460 -8.166196 -167.371091 34.753563 175.519407 -2.387506 2.781025 2.497341 -0.061930 -6.640340 -12.093618 6.103459 14.417768 45.998509 2.456100 -21.589563 -0.251433 0.594400 -4.936000 -13.726000 -0.792070 -4.769502 2.586072 17.328671 -8.987049 24.684758 -4.458187 -9.067895 31.196712 9.604164 -38.297996 2.685669 -0.283600 3.424900 -9.464000 13.827942 6.654443 -4.275183 1.212020 8.113223 -5.300938 1.057534 5.370910 -0.006653 -4.839492 -5.534444 1.112919 -9.799407 -5.725083 8.667169 -0.604800 -3.034800 1.790400 -0.405184 1.695046 0.116821 -64.794133 37.472351 1.140566 18.922338 -41.571028 -8.079848 -0.971720 0.525155 148.744652 20.373803 1.371240 0.866900 -7.125000 0.000000 0.000000 -5.473500 32.504600 1.681400 4.346782 1.233613 0.195307 15.331598 21.990719 -58.425822 -143.871891 41.433882 -105.892806 -0.491117 -0.048658 96.542654 -15.963256 -72.286964 15.297300 7.125000 0.000000 0.000000 122.006700 72.773700 138.237100 
-1.591729 17.081418 -8.201557 -167.535346 33.084553 174.919474 -2.321518 2.813421 2.490333 -0.481886 -7.500329 -12.024325 6.187546 14.428488 46.308991 2.400950 -22.315084 0.233567 0.487200 -4.475500 -12.418400 -0.660717 -4.755125 2.636789 17.898103 -9.483744 24.769854 -4.579656 -9.170028 31.728684 10.086533 -39.358125 1.550053 -0.208200 2.938100 -8.106600 13.877004 7.766682 -3.543588 0.762488 9.662467 -5.312090 -0.331132 6.057052 -0.137153 -5.159132 -6.652649 1.547556 -9.713017 -7.153093 8.901045 -0.345800 -3.777800 1.828700 -0.546225 1.733121 0.154395 -64.262553 36.670617 1.208269 18.736020 -41.185660 -7.876118 -0.969935 0.485639 148.563565 19.735339 2.833969 1.331300 -7.125000 0.000000 0.000000 -6.127600 33.990200 1.663000 4.145263 1.225132 0.164530 13.362780 22.900148 -60.621839 -140.303700 44.123982 -103.217636 -0.467773 -0.116627 94.416965 -16.293825 -72.181597 15.649600 7.125000 0.000000 0.000000 122.059100 72.880400 138.167500 
-1.618788 17.064711 -8.233330 -167.793414 31.430945 174.230940 -2.256241 2.853584 2.485933 -1.007273 -8.320719 -11.899527 6.265651 14.428015 46.596517 2.333091 -23.039307 0.764345 0.386400 -3.991800 -11.053500 -0.523862 -4.745651 2.688896 18.270519 -10.015064 24.811352 -4.712017 -9.288381 32.305158 10.526781 -40.311526 0.576679 -0.150800 2.502700 -6.897000 13.895470 8.899697 -2.642329 0.301077 11.272127 -5.321800 -1.771593 6.776290 -0.248052 -5.270407 -7.818454 2.042874 -9.686906 -8.643458 9.157002 -0.155500 -4.549900 1.860200 -0.677630 1.800559 0.183913 -63.713221 35.649151 0.961484 18.460641 -40.678635 -7.620241 -0.970651 0.453038 148.947382 19.280458 4.265116 1.767100 -7.125000 0.000000 0.000000 -6.666800 35.438600 1.574900 3.949552 1.181104 0.195181 11.104894 23.769377 -63.070994 -135.352640 47.224676 -99.275033 -0.418528 -0.203802 92.161774 -15.876489 -72.041353 15.303400 7.125000 0.000000 0.000000 121.455000 72.941900 137.592600 
